<svg height="512" viewBox="0 0 58 58" width="512" xmlns="http://www.w3.org/2000/svg"><g id="Page-1" fill="none" fill-rule="evenodd"><g id="050---Hanukkah-Calendar" fill-rule="nonzero"><path id="Shape" d="m58 6v10h-58v-10c0-1.65685425 1.34314575-3 3-3h52c1.6568542 0 3 1.34314575 3 3z" fill="#e64c3c"/><path id="Shape" d="m58 16v33l-9 9h-46c-1.65685425 0-3-1.3431458-3-3v-39z" fill="#ecf0f1"/><path id="Shape" d="m58 49h-6c-1.6568542 0-3 1.3431458-3 3v6z" fill="#d1d4d1"/><path id="Shape" d="m29 51c-11.592497-.0132259-20.98677409-9.407503-21-21 0-.5522847.44771525-1 1-1s1 .4477153 1 1c.0000002 10.4934101 8.5065899 18.9999997 19 18.9999997s18.9999998-8.5065896 19-18.9999997c0-.5522847.4477153-1 1-1s1 .4477153 1 1c-.0132259 11.592497-9.407503 20.9867741-21 21z" fill="#f0c419"/><path id="Shape" d="m29 43c-7.1762751-.008266-12.991734-5.8237249-13-13 0-.5522847.4477153-1 1-1s1 .4477153 1 1c0 6.0751322 4.9248678 11 11 11s11-4.9248678 11-11c0-.5522847.4477153-1 1-1s1 .4477153 1 1c-.008266 7.1762751-5.8237249 12.991734-13 13z" fill="#f0c419"/><path id="Shape" d="m29 35c-2.7600532-.0033061-4.9966939-2.2399468-5-5 0-.5522847.4477153-1 1-1s1 .4477153 1 1c0 1.6568542 1.3431458 3 3 3s3-1.3431458 3-3c0-.5522847.4477153-1 1-1s1 .4477153 1 1c-.0033061 2.7600532-2.2399468 4.9966939-5 5z" fill="#f0c419"/><path id="Shape" d="m24 25h2c.5522847 0 1 .4477153 1 1v2c0 1.1045695-.8954305 2-2 2s-2-.8954305-2-2v-2c0-.5522847.4477153-1 1-1z" fill="#f29c1f"/><path id="Shape" d="m16 25h2c.5522847 0 1 .4477153 1 1v2c0 1.1045695-.8954305 2-2 2s-2-.8954305-2-2v-2c0-.5522847.4477153-1 1-1z" fill="#f29c1f"/><path id="Shape" d="m8 25h2c.5522847 0 1 .4477153 1 1v2c0 1.1045695-.8954305 2-2 2s-2-.8954305-2-2v-2c0-.5522847.44771525-1 1-1z" fill="#f29c1f"/><path id="Shape" d="m48 25h2c.5522847 0 1 .4477153 1 1v2c0 1.1045695-.8954305 2-2 2s-2-.8954305-2-2v-2c0-.5522847.4477153-1 1-1z" fill="#f29c1f"/><path id="Shape" d="m40 25h2c.5522847 0 1 .4477153 1 1v2c0 1.1045695-.8954305 2-2 2s-2-.8954305-2-2v-2c0-.5522847.4477153-1 1-1z" fill="#f29c1f"/><path id="Shape" d="m32 25h2c.5522847 0 1 .4477153 1 1v2c0 1.1045695-.8954305 2-2 2s-2-.8954305-2-2v-2c0-.5522847.4477153-1 1-1z" fill="#f29c1f"/><path id="Shape" d="m29 55c-.5522847 0-1-.4477153-1-1v-21c0-.5522847.4477153-1 1-1s1 .4477153 1 1v21c0 .5522847-.4477153 1-1 1z" fill="#f3d55b"/><g fill="#f0c419"><path id="Shape" d="m11 22.916c.0137394.565957-.2086683 1.1121038-.6138802 1.507451-.40521191.3953472-.95667321.6042299-1.5221198.576549-.61338564-.0937476-1.15865929-.4421672-1.50144778-.9593969s-.45121228-1.1551669-.29855222-1.7566031c.19029159-.8043522.64443291-1.5218251 1.29-2.038.36614918-.3180231.90941505-.3218429 1.28-.009.8323954.644332 1.3333823 1.6268679 1.366 2.679z"/><path id="Shape" d="m19 22.916c.0137394.565957-.2086683 1.1121038-.6138802 1.507451s-.9566732.6042299-1.5221198.576549c-.6133856-.0937476-1.1586593-.4421672-1.5014478-.9593969s-.4512123-1.1551669-.2985522-1.7566031c.1902916-.8043522.6444329-1.5218251 1.29-2.038.3661492-.3180231.909415-.3218429 1.28-.009.8323954.644332 1.3333823 1.6268679 1.366 2.679z"/><path id="Shape" d="m27 22.916c.0137394.565957-.2086683 1.1121038-.6138802 1.507451s-.9566732.6042299-1.5221198.576549c-.6133856-.0937476-1.1586593-.4421672-1.5014478-.9593969s-.4512123-1.1551669-.2985522-1.7566031c.1902916-.8043522.6444329-1.5218251 1.29-2.038.3661492-.3180231.909415-.3218429 1.28-.009.8323954.644332 1.3333823 1.6268679 1.366 2.679z"/><path id="Shape" d="m35 22.916c.0137394.565957-.2086683 1.1121038-.6138802 1.507451s-.9566732.6042299-1.5221198.576549c-.6133856-.0937476-1.1586593-.4421672-1.5014478-.9593969s-.4512123-1.1551669-.2985522-1.7566031c.1902916-.8043522.6444329-1.5218251 1.29-2.038.3661492-.3180231.909415-.3218429 1.28-.009.8323954.644332 1.3333823 1.6268679 1.366 2.679z"/><path id="Shape" d="m43 22.916c.0137394.565957-.2086683 1.1121038-.6138802 1.507451s-.9566732.6042299-1.5221198.576549c-.6133856-.0937476-1.1586593-.4421672-1.5014478-.9593969s-.4512123-1.1551669-.2985522-1.7566031c.1902916-.8043522.6444329-1.5218251 1.29-2.038.3661492-.3180231.909415-.3218429 1.28-.009.8323954.644332 1.3333823 1.6268679 1.366 2.679z"/><path id="Shape" d="m51 22.916c.0137394.565957-.2086683 1.1121038-.6138802 1.507451s-.9566732.6042299-1.5221198.576549c-.6133856-.0937476-1.1586593-.4421672-1.5014478-.9593969s-.4512123-1.1551669-.2985522-1.7566031c.1902916-.8043522.6444329-1.5218251 1.29-2.038.3661492-.3180231.909415-.3218429 1.28-.009.8323954.644332 1.3333823 1.6268679 1.366 2.679z"/></g><path id="Shape" d="m47 3c1.7799916.69615377 2.9644585 2.39704811 3 4.308-.1669773 2.63882398-2.3558984 4.6936142-5 4.6936142s-4.8330227-2.05479022-5-4.6936142c.0355415-1.91095189 1.2200084-3.61184623 3-4.308z" fill="#c03a2b"/><path id="Shape" d="m15 3c1.7799916.69615377 2.9644585 2.39704811 3 4.308-.0886126 2.67476119-2.3250095 4.773396-5 4.692-2.6749905.081396-4.91138737-2.01723881-5-4.692.03554154-1.91095189 1.22000835-3.61184623 3-4.308z" fill="#c03a2b"/><rect id="Rectangle-path" fill="#95a5a5" height="8" rx="2" width="4" x="43"/><rect id="Rectangle-path" fill="#95a5a5" height="8" rx="2" width="4" x="11"/><path id="Shape" d="m24 58v-2c0-1.1045695.8954305-2 2-2h6c1.1045695 0 2 .8954305 2 2v2z" fill="#f0c419"/></g></g></svg>