<?xml version="1.0" encoding="UTF-8"?>
<svg width="56" height="56" viewBox="0 0 58 58" xmlns="http://www.w3.org/2000/svg">
<g fill="none" fill-rule="evenodd">
<g fill-rule="nonzero">
<path id="Shape" d="m58 6v10h-58v-10c0-1.6569 1.3431-3 3-3h52c1.6569 0 3 1.3431 3 3z" fill="#e64c3c"/>
<path id="Shape" d="m58 16v33l-9 9h-46c-1.6569 0-3-1.3431-3-3v-39z" fill="#ecf0f1"/>
<path id="Shape" d="m58 49h-6c-1.6569 0-3 1.3431-3 3v6z" fill="#d1d4d1"/>
<path id="Shape" d="m29 51c-11.592-0.013226-20.987-9.4075-21-21 0-0.55228 0.44772-1 1-1s1 0.44772 1 1c2e-7 10.493 8.5066 19 19 19s19-8.5066 19-19c0-0.55228 0.44772-1 1-1s1 0.44772 1 1c-0.013226 11.592-9.4075 20.987-21 21z" fill="#f0c419"/>
<path id="Shape" d="m29 43c-7.1763-0.008266-12.992-5.8237-13-13 0-0.55228 0.44772-1 1-1s1 0.44772 1 1c0 6.0751 4.9249 11 11 11s11-4.9249 11-11c0-0.55228 0.44772-1 1-1s1 0.44772 1 1c-0.008266 7.1763-5.8237 12.992-13 13z" fill="#f0c419"/>
<path id="Shape" d="m29 35c-2.7601-0.0033061-4.9967-2.2399-5-5 0-0.55228 0.44772-1 1-1s1 0.44772 1 1c0 1.6569 1.3431 3 3 3s3-1.3431 3-3c0-0.55228 0.44772-1 1-1s1 0.44772 1 1c-0.0033061 2.7601-2.2399 4.9967-5 5z" fill="#f0c419"/>
<path id="Shape" d="m24 25h2c0.55228 0 1 0.44772 1 1v2c0 1.1046-0.89543 2-2 2s-2-0.89543-2-2v-2c0-0.55228 0.44772-1 1-1z" fill="#f29c1f"/>
<path id="Shape" d="m16 25h2c0.55228 0 1 0.44772 1 1v2c0 1.1046-0.89543 2-2 2s-2-0.89543-2-2v-2c0-0.55228 0.44772-1 1-1z" fill="#f29c1f"/>
<path id="Shape" d="m8 25h2c0.55228 0 1 0.44772 1 1v2c0 1.1046-0.89543 2-2 2s-2-0.89543-2-2v-2c0-0.55228 0.44772-1 1-1z" fill="#f29c1f"/>
<path id="Shape" d="m48 25h2c0.55228 0 1 0.44772 1 1v2c0 1.1046-0.89543 2-2 2s-2-0.89543-2-2v-2c0-0.55228 0.44772-1 1-1z" fill="#f29c1f"/>
<path id="Shape" d="m40 25h2c0.55228 0 1 0.44772 1 1v2c0 1.1046-0.89543 2-2 2s-2-0.89543-2-2v-2c0-0.55228 0.44772-1 1-1z" fill="#f29c1f"/>
<path id="Shape" d="m32 25h2c0.55228 0 1 0.44772 1 1v2c0 1.1046-0.89543 2-2 2s-2-0.89543-2-2v-2c0-0.55228 0.44772-1 1-1z" fill="#f29c1f"/>
<path id="Shape" d="m29 55c-0.55228 0-1-0.44772-1-1v-21c0-0.55228 0.44772-1 1-1s1 0.44772 1 1v21c0 0.55228-0.44772 1-1 1z" fill="#f3d55b"/>
<g fill="#f0c419">
<path id="Shape" d="m11 22.916c0.013739 0.56596-0.20867 1.1121-0.61388 1.5075-0.40521 0.39535-0.95667 0.60423-1.5221 0.57655-0.61339-0.093748-1.1587-0.44217-1.5014-0.9594s-0.45121-1.1552-0.29855-1.7566c0.19029-0.80435 0.64443-1.5218 1.29-2.038 0.36615-0.31802 0.90942-0.32184 1.28-9e-3 0.8324 0.64433 1.3334 1.6269 1.366 2.679z"/>
<path id="Shape" d="m19 22.916c0.013739 0.56596-0.20867 1.1121-0.61388 1.5075s-0.95667 0.60423-1.5221 0.57655c-0.61339-0.093748-1.1587-0.44217-1.5014-0.9594s-0.45121-1.1552-0.29855-1.7566c0.19029-0.80435 0.64443-1.5218 1.29-2.038 0.36615-0.31802 0.90942-0.32184 1.28-9e-3 0.8324 0.64433 1.3334 1.6269 1.366 2.679z"/>
<path id="Shape" d="m27 22.916c0.013739 0.56596-0.20867 1.1121-0.61388 1.5075s-0.95667 0.60423-1.5221 0.57655c-0.61339-0.093748-1.1587-0.44217-1.5014-0.9594s-0.45121-1.1552-0.29855-1.7566c0.19029-0.80435 0.64443-1.5218 1.29-2.038 0.36615-0.31802 0.90942-0.32184 1.28-9e-3 0.8324 0.64433 1.3334 1.6269 1.366 2.679z"/>
<path id="Shape" d="m35 22.916c0.013739 0.56596-0.20867 1.1121-0.61388 1.5075s-0.95667 0.60423-1.5221 0.57655c-0.61339-0.093748-1.1587-0.44217-1.5014-0.9594s-0.45121-1.1552-0.29855-1.7566c0.19029-0.80435 0.64443-1.5218 1.29-2.038 0.36615-0.31802 0.90942-0.32184 1.28-9e-3 0.8324 0.64433 1.3334 1.6269 1.366 2.679z"/>
<path id="Shape" d="m43 22.916c0.013739 0.56596-0.20867 1.1121-0.61388 1.5075s-0.95667 0.60423-1.5221 0.57655c-0.61339-0.093748-1.1587-0.44217-1.5014-0.9594s-0.45121-1.1552-0.29855-1.7566c0.19029-0.80435 0.64443-1.5218 1.29-2.038 0.36615-0.31802 0.90942-0.32184 1.28-9e-3 0.8324 0.64433 1.3334 1.6269 1.366 2.679z"/>
<path id="Shape" d="m51 22.916c0.013739 0.56596-0.20867 1.1121-0.61388 1.5075s-0.95667 0.60423-1.5221 0.57655c-0.61339-0.093748-1.1587-0.44217-1.5014-0.9594s-0.45121-1.1552-0.29855-1.7566c0.19029-0.80435 0.64443-1.5218 1.29-2.038 0.36615-0.31802 0.90942-0.32184 1.28-9e-3 0.8324 0.64433 1.3334 1.6269 1.366 2.679z"/>
</g>
<path id="Shape" d="m47 3c1.78 0.69615 2.9645 2.397 3 4.308-0.16698 2.6388-2.3559 4.6936-5 4.6936s-4.833-2.0548-5-4.6936c0.035542-1.911 1.22-3.6118 3-4.308z" fill="#c03a2b"/>
<path id="b" d="m15 3c1.78 0.69615 2.9645 2.397 3 4.308-0.088613 2.6748-2.325 4.7734-5 4.692-2.675 0.081396-4.9114-2.0172-5-4.692 0.035542-1.911 1.22-3.6118 3-4.308z" fill="#c03a2b"/>
<rect id="a" x="43" width="4" height="8" rx="2" fill="#95a5a5"/>
<rect x="11" width="4" height="8" rx="2" fill="#95a5a5"/>
<path d="m24 58v-2c0-1.1046 0.89543-2 2-2h6c1.1046 0 2 0.89543 2 2v2z" fill="#f0c419"/>
</g>
</g>
</svg>
